<?xml version="1.0" encoding="UTF-8"?>
<svg width="395px" height="184px" viewBox="0 0 395 184" version="1.1" xmlns="http://www.w3.org/2000/svg" xmlns:xlink="http://www.w3.org/1999/xlink">
    <!-- Generator: Sketch 45.1 (43504) - http://www.bohemiancoding.com/sketch -->
    <title>缺省图</title>
    <desc>Created with Sketch.</desc>
    <defs>
        <filter x="-26.6%" y="-49.3%" width="153.2%" height="198.6%" filterUnits="objectBoundingBox" id="filter-1">
            <feGaussianBlur stdDeviation="5.58651195" in="SourceGraphic"></feGaussianBlur>
        </filter>
        <path d="M14.206,11.176 C17.526,9.847 18.462,6.992 17.55,4.325 C17.0965135,2.93054945 16.0905556,1.78334913 14.767295,1.15158672 C13.4440344,0.519824299 11.9194671,0.458879595 10.55,0.983 C8.528,1.589 6.236,4.783 3.85,6.259 C1.792,7.532 -0.826,7.272 0.659,8.216 C5.381,11.214 9.612,13.015 14.206,11.176 Z" id="path-2"></path>
        <path d="M19.933,16.077 C25.238,15.564 27.67,11.897 27.356,7.735 C27.042,3.573 23.845,0.055 18.493,0.096 C15.338,0.12 10.818,3.705 6.809,4.814 C3.35,5.771 -0.341,4.314 1.452,6.272 C7.149,12.48 12.591,16.787 19.933,16.077 Z" id="path-4"></path>
    </defs>
    <g id="模板" stroke="none" stroke-width="1" fill="none" fill-rule="evenodd">
        <g id="06" transform="translate(-111.000000, -477.000000)">
            <g id="缺省" transform="translate(111.000000, 477.000000)">
                <g id="缺省图">
                    <polygon id="形状_9" fill="#D9D9D9" filter="url(#filter-1)" points="173 171 110 148.56 133.282609 137 173 160.12"></polygon>
                    <polygon id="矩形_35_拷贝_2" fill="#F7F7F7" points="180.028 49.856 257.965 68.156 253.951 153.125 180.028 132"></polygon>
                    <polyline id="矩形_35_拷贝_3" fill="#F0F0F0" points="121.487 71.044 127.909 149.214 179.225 123.593 179.225 50.659"></polyline>
                    <path d="M257.965,72.549 L194.865,96.362 L194.865,184 L247.61,156.471 C258.2,150.944 255.452,155.655 255.854,142.339 C256.5,120.93 257.965,72.549 257.965,72.549 Z" id="矩形_35_拷贝" fill="#F2F2F2"></path>
                    <polygon id="矩形_35" fill="#EAEAEA" points="122.289 77.254 194.869 96.362 194.869 184 127.909 155.64"></polygon>
                    <polyline id="形状_8" fill="#D9D9D9" points="194 96 164 136 124 121 123 105"></polyline>
                    <path d="M119.881,73.238 L91.327,98.846 L156.358,121.346 C156.358,121.346 195.47,95.646 194.894,95.646 C194.425,95.642 119.881,73.238 119.881,73.238 Z" id="形状_6_拷贝" fill="#FAFAFA"></path>
                    <polygon id="形状_6" fill="#EAEAEA" points="180.443 50.053 202.923 23.545 281.6 41.217 259.12 69.331 180.441 50.053 180.441 50.053"></polygon>
                    <polygon id="形状_7" fill="#E2E2E2" points="92.13 73.544 119.43 72.744 179.643 51.056 141.1 55.069"></polygon>
                    <path d="M259.471,69.95 L280.8,103.639 L216.571,135 C216.571,135 196.727,95.586 197.303,95.586 C197.772,95.587 259.471,69.95 259.471,69.95 Z" id="形状_6_拷贝_2" fill="#EAEAEA"></path>
                    <g id="Group" transform="translate(320.000000, 0.000000)" stroke="#000000" stroke-width="2" opacity="0.06">
                        <path d="M74,0.783 C74,0.783 66,16.876 53.207,28.953 C40.959,40.512 24.107,48.325 14.507,37.781 C9.315,32.081 13.362,22.781 20.972,22.781 C29.505,22.781 46.749,35.873 0.84,57.881" id="形状_4"></path>
                    </g>
                    <g id="形状_4-link" transform="translate(320.000000, 0.000000)" stroke="#000000" stroke-width="2" opacity="0.06">
                        <path d="M74,0.783 C74,0.783 66,16.876 53.207,28.953 C40.959,40.512 24.107,48.325 14.507,37.781 C9.315,32.081 13.362,22.781 20.972,22.781 C29.505,22.781 46.749,35.873 0.84,57.881" id="形状_4"></path>
                    </g>
                    <g id="形状_5" transform="translate(287.000000, 54.000000)">
                        <mask id="mask-3" fill="white">
                            <use xlink:href="#path-2"></use>
                        </mask>
                        <use id="Mask" fill="#EBEBEB" xlink:href="#path-2"></use>
                        <path d="M15.453,6.11 C6.236,10.794 5.127,10.451 5.127,10.451 L1.027,8.708 C1.027,8.708 3.096,1.932 3.436,1.479 C3.776,1.026 11.464,-0.931 11.464,-0.931 L17.887,2.282 C17.887,2.282 24.671,1.425 15.453,6.11 Z" fill="#EFEFEF" mask="url(#mask-3)"></path>
                    </g>
                    <g id="Group" transform="translate(73.000000, 94.000000)" stroke="#000000" stroke-width="2" opacity="0.08">
                        <path d="M44.018,0.545 C41.4246027,6.12419186 38.206698,11.391196 34.426,16.245 C27.592,24.673 20.592,31.836 13.958,25.502 C10.371,22.077 12.624,16.69 17.333,15.481 C21.333,14.456 34.09,29.281 0.257,41" id="形状_4_拷贝"></path>
                    </g>
                    <g id="形状_4_拷贝-link" transform="translate(73.000000, 94.000000)" stroke="#000000" stroke-width="2" opacity="0.08">
                        <path d="M44.018,0.545 C41.4246027,6.12419186 38.206698,11.391196 34.426,16.245 C27.592,24.673 20.592,31.836 13.958,25.502 C10.371,22.077 12.624,16.69 17.333,15.481 C21.333,14.456 34.09,29.281 0.257,41" id="形状_4_拷贝"></path>
                    </g>
                    <g id="形状_5_拷贝" transform="translate(38.000000, 144.000000)">
                        <mask id="mask-5" fill="white">
                            <use xlink:href="#path-4"></use>
                        </mask>
                        <use id="Mask" fill="#EBEBEB" xlink:href="#path-4"></use>
                        <path d="M27.111,8.768 C12.111,12.116 2.931,6.873 2.931,6.873 C2.931,6.873 0.18,-2.86 3.382,-4.72 C6.584,-6.58 43.097,-0.135 28.27,8.935" fill="#EFEFEF" mask="url(#mask-5)"></path>
                    </g>
                    <path d="M2.678,142.951 C3.95908118,142.732445 5.24566769,143.307147 5.93778474,144.407106 C6.62990179,145.507065 6.59123707,146.915643 5.83982112,147.975978 C5.08840518,149.036312 3.77222922,149.539571 2.50506652,149.251068 C1.23790382,148.962565 0.2693218,147.939121 0.051,146.658 C-0.0926870709,145.817999 0.10343917,144.955332 0.596177603,144.260021 C1.08891604,143.56471 1.83784629,143.093793 2.678,142.951 L2.678,142.951 Z" id="椭圆_2" fill="#EDEDED"></path>
                </g>
            </g>
        </g>
    </g>
</svg>